<mxfile host="app.diagrams.net" modified="2024-03-07T06:57:10.617Z" agent="Mozilla/5.0 (Windows NT 10.0; Win64; x64) AppleWebKit/537.36 (KHTML, like Gecko) Chrome/122.0.0.0 Safari/537.36" etag="pkv1lWDO5G7ukvsxfGEM" version="24.0.1" type="github">
  <diagram name="第 1 页" id="Qw28GFKZARkFMmKP-efk">
    <mxGraphModel dx="1802" dy="845" grid="1" gridSize="10" guides="1" tooltips="1" connect="1" arrows="1" fold="1" page="1" pageScale="1" pageWidth="827" pageHeight="1169" math="0" shadow="0">
      <root>
        <mxCell id="0" />
        <mxCell id="1" parent="0" />
        <mxCell id="2baGIIIHMc5CiypYjOd4-8" value="" style="shape=folder;fontStyle=1;spacingTop=10;tabWidth=40;tabHeight=14;tabPosition=left;html=1;whiteSpace=wrap;" vertex="1" parent="1">
          <mxGeometry x="540" y="30" width="210" height="470" as="geometry" />
        </mxCell>
        <mxCell id="2baGIIIHMc5CiypYjOd4-2" value="" style="shape=folder;fontStyle=1;spacingTop=10;tabWidth=40;tabHeight=14;tabPosition=left;html=1;whiteSpace=wrap;" vertex="1" parent="1">
          <mxGeometry x="110" y="90" width="210" height="360" as="geometry" />
        </mxCell>
        <mxCell id="2baGIIIHMc5CiypYjOd4-16" style="rounded=0;orthogonalLoop=1;jettySize=auto;html=1;entryX=1;entryY=0.5;entryDx=0;entryDy=0;" edge="1" parent="1" source="2baGIIIHMc5CiypYjOd4-1" target="2baGIIIHMc5CiypYjOd4-3">
          <mxGeometry relative="1" as="geometry" />
        </mxCell>
        <mxCell id="2baGIIIHMc5CiypYjOd4-18" style="rounded=0;orthogonalLoop=1;jettySize=auto;html=1;entryX=1;entryY=0.5;entryDx=0;entryDy=0;" edge="1" parent="1" source="2baGIIIHMc5CiypYjOd4-1" target="2baGIIIHMc5CiypYjOd4-4">
          <mxGeometry relative="1" as="geometry" />
        </mxCell>
        <mxCell id="2baGIIIHMc5CiypYjOd4-19" style="rounded=0;orthogonalLoop=1;jettySize=auto;html=1;" edge="1" parent="1" source="2baGIIIHMc5CiypYjOd4-1" target="2baGIIIHMc5CiypYjOd4-6">
          <mxGeometry relative="1" as="geometry" />
        </mxCell>
        <mxCell id="2baGIIIHMc5CiypYjOd4-20" style="rounded=0;orthogonalLoop=1;jettySize=auto;html=1;entryX=1;entryY=0.5;entryDx=0;entryDy=0;" edge="1" parent="1" source="2baGIIIHMc5CiypYjOd4-1" target="2baGIIIHMc5CiypYjOd4-7">
          <mxGeometry relative="1" as="geometry" />
        </mxCell>
        <mxCell id="2baGIIIHMc5CiypYjOd4-21" style="rounded=0;orthogonalLoop=1;jettySize=auto;html=1;entryX=0;entryY=0.5;entryDx=0;entryDy=0;" edge="1" parent="1" source="2baGIIIHMc5CiypYjOd4-1" target="2baGIIIHMc5CiypYjOd4-9">
          <mxGeometry relative="1" as="geometry" />
        </mxCell>
        <mxCell id="2baGIIIHMc5CiypYjOd4-22" style="rounded=0;orthogonalLoop=1;jettySize=auto;html=1;entryX=0;entryY=0.5;entryDx=0;entryDy=0;" edge="1" parent="1" source="2baGIIIHMc5CiypYjOd4-1" target="2baGIIIHMc5CiypYjOd4-10">
          <mxGeometry relative="1" as="geometry" />
        </mxCell>
        <mxCell id="2baGIIIHMc5CiypYjOd4-23" style="rounded=0;orthogonalLoop=1;jettySize=auto;html=1;entryX=0;entryY=0.5;entryDx=0;entryDy=0;" edge="1" parent="1" source="2baGIIIHMc5CiypYjOd4-1" target="2baGIIIHMc5CiypYjOd4-12">
          <mxGeometry relative="1" as="geometry" />
        </mxCell>
        <mxCell id="2baGIIIHMc5CiypYjOd4-24" style="rounded=0;orthogonalLoop=1;jettySize=auto;html=1;entryX=0;entryY=0.5;entryDx=0;entryDy=0;" edge="1" parent="1" source="2baGIIIHMc5CiypYjOd4-1" target="2baGIIIHMc5CiypYjOd4-13">
          <mxGeometry relative="1" as="geometry" />
        </mxCell>
        <mxCell id="2baGIIIHMc5CiypYjOd4-25" style="rounded=0;orthogonalLoop=1;jettySize=auto;html=1;entryX=0;entryY=0.5;entryDx=0;entryDy=0;" edge="1" parent="1" source="2baGIIIHMc5CiypYjOd4-1" target="2baGIIIHMc5CiypYjOd4-14">
          <mxGeometry relative="1" as="geometry" />
        </mxCell>
        <mxCell id="2baGIIIHMc5CiypYjOd4-26" style="rounded=0;orthogonalLoop=1;jettySize=auto;html=1;entryX=0;entryY=0.5;entryDx=0;entryDy=0;" edge="1" parent="1" source="2baGIIIHMc5CiypYjOd4-1" target="2baGIIIHMc5CiypYjOd4-15">
          <mxGeometry relative="1" as="geometry" />
        </mxCell>
        <mxCell id="2baGIIIHMc5CiypYjOd4-1" value="" style="shape=umlActor;verticalLabelPosition=bottom;verticalAlign=top;html=1;outlineConnect=0;" vertex="1" parent="1">
          <mxGeometry x="414" y="250" width="30" height="60" as="geometry" />
        </mxCell>
        <mxCell id="2baGIIIHMc5CiypYjOd4-3" value="地震协议解析" style="ellipse;whiteSpace=wrap;html=1;" vertex="1" parent="1">
          <mxGeometry x="150" y="150" width="120" height="50" as="geometry" />
        </mxCell>
        <mxCell id="2baGIIIHMc5CiypYjOd4-4" value="数据存储" style="ellipse;whiteSpace=wrap;html=1;" vertex="1" parent="1">
          <mxGeometry x="150" y="220" width="120" height="50" as="geometry" />
        </mxCell>
        <mxCell id="2baGIIIHMc5CiypYjOd4-5" value="数据分析系统" style="text;html=1;align=center;verticalAlign=middle;whiteSpace=wrap;rounded=0;" vertex="1" parent="1">
          <mxGeometry x="170" y="110" width="80" height="30" as="geometry" />
        </mxCell>
        <mxCell id="2baGIIIHMc5CiypYjOd4-6" value="事件存储和管理" style="ellipse;whiteSpace=wrap;html=1;" vertex="1" parent="1">
          <mxGeometry x="150" y="290" width="120" height="50" as="geometry" />
        </mxCell>
        <mxCell id="2baGIIIHMc5CiypYjOd4-7" value="手动事件检测" style="ellipse;whiteSpace=wrap;html=1;" vertex="1" parent="1">
          <mxGeometry x="150" y="360" width="120" height="50" as="geometry" />
        </mxCell>
        <mxCell id="2baGIIIHMc5CiypYjOd4-9" value="波形数据获取" style="ellipse;whiteSpace=wrap;html=1;" vertex="1" parent="1">
          <mxGeometry x="580" y="90" width="120" height="50" as="geometry" />
        </mxCell>
        <mxCell id="2baGIIIHMc5CiypYjOd4-10" value="站点信息获取" style="ellipse;whiteSpace=wrap;html=1;" vertex="1" parent="1">
          <mxGeometry x="580" y="160" width="120" height="50" as="geometry" />
        </mxCell>
        <mxCell id="2baGIIIHMc5CiypYjOd4-11" value="数据开放管理子系统" style="text;html=1;align=center;verticalAlign=middle;whiteSpace=wrap;rounded=0;" vertex="1" parent="1">
          <mxGeometry x="600" y="50" width="110" height="30" as="geometry" />
        </mxCell>
        <mxCell id="2baGIIIHMc5CiypYjOd4-12" value="事件信息获取" style="ellipse;whiteSpace=wrap;html=1;" vertex="1" parent="1">
          <mxGeometry x="580" y="230" width="120" height="50" as="geometry" />
        </mxCell>
        <mxCell id="2baGIIIHMc5CiypYjOd4-13" value="受限时间段管理" style="ellipse;whiteSpace=wrap;html=1;" vertex="1" parent="1">
          <mxGeometry x="580" y="300" width="120" height="50" as="geometry" />
        </mxCell>
        <mxCell id="2baGIIIHMc5CiypYjOd4-14" value="日志管理" style="ellipse;whiteSpace=wrap;html=1;" vertex="1" parent="1">
          <mxGeometry x="585" y="370" width="120" height="50" as="geometry" />
        </mxCell>
        <mxCell id="2baGIIIHMc5CiypYjOd4-15" value="用户管理" style="ellipse;whiteSpace=wrap;html=1;" vertex="1" parent="1">
          <mxGeometry x="585" y="430" width="120" height="50" as="geometry" />
        </mxCell>
      </root>
    </mxGraphModel>
  </diagram>
</mxfile>
